<mxfile host="app.diagrams.net" agent="Mozilla/5.0 (Windows NT 10.0; Win64; x64) AppleWebKit/537.36 (KHTML, like Gecko) Chrome/130.0.0.0 Safari/537.36" version="25.0.3">
  <diagram name="Trang-1" id="z8KpA6BHnt4M9eWd5lxw">
    <mxGraphModel grid="1" page="1" gridSize="10" guides="1" tooltips="1" connect="1" arrows="1" fold="1" pageScale="1" pageWidth="827" pageHeight="1169" math="0" shadow="0">
      <root>
        <mxCell id="0" />
        <mxCell id="1" parent="0" />
        <mxCell id="gPccHjJRjTHKPasZZgsG-3" value="" style="edgeStyle=orthogonalEdgeStyle;rounded=0;orthogonalLoop=1;jettySize=auto;html=1;" edge="1" parent="1" source="gPccHjJRjTHKPasZZgsG-1" target="gPccHjJRjTHKPasZZgsG-2">
          <mxGeometry relative="1" as="geometry" />
        </mxCell>
        <mxCell id="gPccHjJRjTHKPasZZgsG-1" value="Start" style="ellipse;whiteSpace=wrap;html=1;" vertex="1" parent="1">
          <mxGeometry x="340" y="80" width="120" height="80" as="geometry" />
        </mxCell>
        <mxCell id="gPccHjJRjTHKPasZZgsG-5" value="" style="edgeStyle=orthogonalEdgeStyle;rounded=0;orthogonalLoop=1;jettySize=auto;html=1;entryX=0.5;entryY=0;entryDx=0;entryDy=0;" edge="1" parent="1" source="gPccHjJRjTHKPasZZgsG-2" target="nHQanEgDrN-mRbGSpMyC-1">
          <mxGeometry relative="1" as="geometry">
            <mxPoint x="400" y="400" as="targetPoint" />
          </mxGeometry>
        </mxCell>
        <mxCell id="gPccHjJRjTHKPasZZgsG-2" value="Nhập vào một số nguyên dương n" style="shape=parallelogram;perimeter=parallelogramPerimeter;whiteSpace=wrap;html=1;fixedSize=1;" vertex="1" parent="1">
          <mxGeometry x="340" y="250" width="120" height="60" as="geometry" />
        </mxCell>
        <mxCell id="nHQanEgDrN-mRbGSpMyC-10" value="" style="edgeStyle=orthogonalEdgeStyle;rounded=0;orthogonalLoop=1;jettySize=auto;html=1;" edge="1" parent="1" source="gPccHjJRjTHKPasZZgsG-6" target="nHQanEgDrN-mRbGSpMyC-9">
          <mxGeometry relative="1" as="geometry" />
        </mxCell>
        <mxCell id="nHQanEgDrN-mRbGSpMyC-11" style="edgeStyle=orthogonalEdgeStyle;rounded=0;orthogonalLoop=1;jettySize=auto;html=1;entryX=0.5;entryY=0;entryDx=0;entryDy=0;" edge="1" parent="1" source="gPccHjJRjTHKPasZZgsG-6" target="nHQanEgDrN-mRbGSpMyC-2">
          <mxGeometry relative="1" as="geometry" />
        </mxCell>
        <mxCell id="gPccHjJRjTHKPasZZgsG-6" value="n%i==0" style="rhombus;whiteSpace=wrap;html=1;" vertex="1" parent="1">
          <mxGeometry x="550" y="310" width="140" height="130" as="geometry" />
        </mxCell>
        <mxCell id="gPccHjJRjTHKPasZZgsG-8" value="False" style="text;html=1;align=center;verticalAlign=middle;whiteSpace=wrap;rounded=0;" vertex="1" parent="1">
          <mxGeometry x="430" y="530" width="60" height="30" as="geometry" />
        </mxCell>
        <mxCell id="gPccHjJRjTHKPasZZgsG-12" value="True" style="text;html=1;align=center;verticalAlign=middle;whiteSpace=wrap;rounded=0;" vertex="1" parent="1">
          <mxGeometry x="450" y="470" width="60" height="30" as="geometry" />
        </mxCell>
        <mxCell id="gPccHjJRjTHKPasZZgsG-15" value="Kết thúc chương trình" style="ellipse;whiteSpace=wrap;html=1;" vertex="1" parent="1">
          <mxGeometry x="374" y="730" width="120" height="80" as="geometry" />
        </mxCell>
        <mxCell id="gPccHjJRjTHKPasZZgsG-25" style="edgeStyle=orthogonalEdgeStyle;rounded=0;orthogonalLoop=1;jettySize=auto;html=1;exitX=0.5;exitY=1;exitDx=0;exitDy=0;" edge="1" parent="1" source="gPccHjJRjTHKPasZZgsG-12" target="gPccHjJRjTHKPasZZgsG-12">
          <mxGeometry relative="1" as="geometry" />
        </mxCell>
        <mxCell id="gPccHjJRjTHKPasZZgsG-29" value="True" style="text;html=1;align=center;verticalAlign=middle;whiteSpace=wrap;rounded=0;" vertex="1" parent="1">
          <mxGeometry x="610" y="440" width="60" height="30" as="geometry" />
        </mxCell>
        <mxCell id="gPccHjJRjTHKPasZZgsG-31" value="False" style="text;html=1;align=center;verticalAlign=middle;whiteSpace=wrap;rounded=0;" vertex="1" parent="1">
          <mxGeometry x="500" y="340" width="60" height="30" as="geometry" />
        </mxCell>
        <mxCell id="nHQanEgDrN-mRbGSpMyC-3" value="" style="edgeStyle=orthogonalEdgeStyle;rounded=0;orthogonalLoop=1;jettySize=auto;html=1;" edge="1" parent="1" source="nHQanEgDrN-mRbGSpMyC-1" target="nHQanEgDrN-mRbGSpMyC-2">
          <mxGeometry relative="1" as="geometry" />
        </mxCell>
        <mxCell id="nHQanEgDrN-mRbGSpMyC-1" value="i=0" style="rounded=0;whiteSpace=wrap;html=1;" vertex="1" parent="1">
          <mxGeometry y="395" width="120" height="60" as="geometry" />
        </mxCell>
        <mxCell id="nHQanEgDrN-mRbGSpMyC-5" value="" style="edgeStyle=orthogonalEdgeStyle;rounded=0;orthogonalLoop=1;jettySize=auto;html=1;" edge="1" parent="1" source="nHQanEgDrN-mRbGSpMyC-2" target="nHQanEgDrN-mRbGSpMyC-4">
          <mxGeometry relative="1" as="geometry" />
        </mxCell>
        <mxCell id="nHQanEgDrN-mRbGSpMyC-2" value="i++" style="rounded=0;whiteSpace=wrap;html=1;" vertex="1" parent="1">
          <mxGeometry x="190" y="395" width="120" height="60" as="geometry" />
        </mxCell>
        <mxCell id="nHQanEgDrN-mRbGSpMyC-6" style="edgeStyle=orthogonalEdgeStyle;rounded=0;orthogonalLoop=1;jettySize=auto;html=1;entryX=0;entryY=0.5;entryDx=0;entryDy=0;" edge="1" parent="1" source="nHQanEgDrN-mRbGSpMyC-4" target="gPccHjJRjTHKPasZZgsG-6">
          <mxGeometry relative="1" as="geometry" />
        </mxCell>
        <mxCell id="nHQanEgDrN-mRbGSpMyC-7" style="edgeStyle=orthogonalEdgeStyle;rounded=0;orthogonalLoop=1;jettySize=auto;html=1;" edge="1" parent="1" source="nHQanEgDrN-mRbGSpMyC-4" target="gPccHjJRjTHKPasZZgsG-15">
          <mxGeometry relative="1" as="geometry" />
        </mxCell>
        <mxCell id="nHQanEgDrN-mRbGSpMyC-4" value="i &amp;lt;= n" style="rhombus;whiteSpace=wrap;html=1;rounded=0;" vertex="1" parent="1">
          <mxGeometry x="394" y="455" width="80" height="80" as="geometry" />
        </mxCell>
        <mxCell id="nHQanEgDrN-mRbGSpMyC-9" value="In giá trị của i" style="shape=parallelogram;perimeter=parallelogramPerimeter;whiteSpace=wrap;html=1;fixedSize=1;" vertex="1" parent="1">
          <mxGeometry x="560" y="555" width="120" height="60" as="geometry" />
        </mxCell>
      </root>
    </mxGraphModel>
  </diagram>
</mxfile>
